<?xml version="1.0" encoding="utf-8"?>
<svg version="1.1" xmlns="http://www.w3.org/2000/svg" width="714" height="637" viewBox="-14.92 43.066 733.53 572.402">
  <path d="M 389.991 414.884 C 389.991 414.884 412.512 441.805 412.662 441.805 C 412.812 441.805 466.914 466.633 467.213 466.176 C 467.512 465.719 521.013 474.621 521.013 474.621 L 546.936 467.075 L 566.251 452.723 L 557.285 443.151 L 544.398 439.954 L 389.991 414.884 Z" style="stroke: rgb(0, 0, 0);"/>
  <path d="M 357.432 370.508 L 375.472 395.232 L 596.112 410.521 L 650.545 380.175 L 691.891 315.223 L 569.927 316.055 L 440.875 336.589 L 357.432 370.508 Z" style="stroke: rgb(0, 0, 0);"/>
  <path d="M 405.051 222.853 L 438.776 281.369 L 507.752 278.279 L 533.664 223.405 L 497.295 166.071 L 439.551 169.27 L 405.051 222.853 Z" style="stroke: rgb(0, 0, 0);"/>
  <path d="M 518.931 120.583 L 557.783 187.224 L 622.346 183.029 L 655.357 127.747 L 613.575 62.792 L 551.353 67.695 L 518.931 120.583 Z" style="stroke: rgb(0, 0, 0);"/>
  <path style="stroke: rgb(0, 0, 0);" d="M 29.542 109.309 L 188.757 331.465 L 31.202 555.705 L 168.956 556.085 L 256.863 426.432 L 357.341 580.269 L 504.824 579.208 L 333.667 329.599 L 381.183 268.827 L 478.515 111.355 L 344.92 108.837 L 271.81 225.4 L 266.433 235.174 L 179.06 108.192 L 29.542 109.309 Z"/>
  <path d="M0 0 C22.87852599 0.08383198 45.75698025 0.17894014 68.63540268 0.28752708 C79.25789699 0.33768038 89.88038347 0.38412298 100.50292969 0.421875 C109.75994398 0.45478335 119.01689804 0.49460815 128.27384591 0.54279006 C133.17676048 0.56806654 138.07963503 0.58984445 142.98259735 0.60334396 C147.59544084 0.61615386 152.20814717 0.6381967 156.82091522 0.66738319 C158.51563028 0.67646735 160.21036744 0.68215115 161.90510559 0.68421364 C164.21600735 0.68753027 166.52651885 0.70299118 168.83734131 0.7215271 C170.13153866 0.72705786 171.42573601 0.73258862 172.75915146 0.73828697 C175.81404504 0.9849833 177.49185916 1.3010624 180 3 C181.61328125 5.1953125 181.61328125 5.1953125 183.3125 8.125 C184.0076442 9.2964467 184.70440439 10.46693523 185.40234375 11.63671875 C185.80179199 12.31138184 186.20124023 12.98604492 186.61279297 13.68115234 C194.22804331 26.410763 202.03048309 39.03459016 210.81640625 50.9921875 C212.92845137 53.90144464 214.91175791 56.8638925 216.875 59.875 C219.9868717 64.58957917 223.28233004 69.12137041 226.6875 73.625 C244.80215654 97.58542219 244.80215654 97.58542219 252.28588867 109.93798828 C253.14093354 111.32388646 254.06385224 112.66754255 255 114 C255.66 114 256.32 114 257 114 C258.40043687 112.39062231 258.40043687 112.39062231 259.80078125 110.2578125 C260.35886475 109.44852295 260.91694824 108.6392334 261.49194336 107.80541992 C262.3931189 106.47861206 262.3931189 106.47861206 263.3125 105.125 C264.58982057 103.26861868 265.8684934 101.41316717 267.1484375 99.55859375 C267.79522461 98.61999512 268.44201172 97.68139648 269.10839844 96.71435547 C271.31478403 93.54830036 273.58336142 90.43297263 275.8684082 87.32348633 C284.04901332 76.18732417 291.5352086 64.62356657 299 53 C305.67199421 42.61715402 312.44942126 32.33891351 319.48193359 22.19628906 C322.39962819 17.97506349 325.29184881 13.7363622 328.1875 9.5 C329.30598061 7.8645772 330.42446939 6.22915998 331.54296875 4.59375 C332.36199336 3.39584304 333.18100631 2.1979281 334 1 C334.64325635 1.06980544 335.2865127 1.13961088 335.94926167 1.21153164 C343.31218823 1.95267568 350.60200554 2.16853825 357.9987793 2.20532227 C359.24884262 2.21522186 360.49890594 2.22512146 361.78684998 2.23532104 C365.17864705 2.26129581 368.57042326 2.28324387 371.96225715 2.30332303 C375.52033864 2.3253647 379.07837992 2.35266343 382.63642883 2.37937927 C389.35799097 2.42906269 396.07957572 2.47409063 402.80118161 2.51740164 C410.46032601 2.56698373 418.11943003 2.62182328 425.77853525 2.67708123 C441.51898608 2.79052687 457.25947421 2.89744565 473 3 C473.21802758 9.42760257 470.92498527 14.09365691 466.89068604 18.96588135 C459.26226816 26.15671515 445.63168334 23.64569698 435.9921875 23.3671875 C433.33830558 23.3410518 430.68495377 23.3204471 428.03103638 23.30715942 C421.77878815 23.26381499 415.53000818 23.14918717 409.27928078 23.00826657 C402.15754876 22.85123023 395.03564202 22.77467373 387.91260695 22.70453048 C373.27329015 22.55858582 358.63669359 22.31268905 344 22 C343.69791626 22.7806633 343.39583252 23.5613266 343.08459473 24.36564636 C342.00194885 26.99526647 340.75401038 29.00069412 339.09375 31.30078125 C338.51971436 32.10507568 337.94567871 32.90937012 337.35424805 33.73803711 C336.74234619 34.58760986 336.13044434 35.43718262 335.5 36.3125 C331.04201186 42.58199171 326.70730482 48.8775086 322.6875 55.4375 C318.73040812 61.88641914 314.53859101 68.12358347 310.18164062 74.31201172 C308.0346528 77.37901045 305.92740201 80.4733344 303.8125 83.5625 C300.89689953 87.81473488 297.96769018 92.05618767 294.99609375 96.26953125 C289.29335545 104.35868926 283.6567426 112.4830683 278.1328125 120.6953125 C277.61887939 121.45866913 277.10494629 122.22202576 276.57543945 123.0085144 C273.98381957 126.85944468 271.39778264 130.71396785 268.81933594 134.57373047 C267.85627246 136.00758953 266.89306268 137.44135035 265.9296875 138.875 C265.49165802 139.53460724 265.05362854 140.19421448 264.60232544 140.87380981 C262.31107805 144.27388832 259.97280349 147.14943218 257 150 C256.34 150.99 255.68 151.98 255 153 C252.74744952 149.56416529 250.49809262 146.1262531 248.25 142.6875 C247.56695801 141.64311768 246.88391602 140.59873535 246.18017578 139.52270508 C242.50048543 133.88220049 238.86722501 128.21902737 235.3125 122.49902344 C227.84257975 110.48726989 219.83724967 98.83089296 210.875 87.875 C205.9893221 81.89337339 201.74561795 75.47322771 197.41894531 69.08349609 C196.05012804 67.07360508 194.66554361 65.07584437 193.2734375 63.08203125 C186.68039475 53.62404844 180.44405805 43.96885274 174.36035156 34.17578125 C173.42986661 32.6875397 172.48856151 31.20602334 171.53808594 29.73046875 C170.85020996 28.65732422 170.85020996 28.65732422 170.1484375 27.5625 C169.528479 26.60537109 169.528479 26.60537109 168.89599609 25.62890625 C168 24 168 24 168 22 C126.75 22.33 85.5 22.66 43 23 C52.33225685 36.26791426 52.33225685 36.26791426 61.875 49.375 C63.05861114 50.97524755 64.24220436 52.57550836 65.42578125 54.17578125 C66.01568848 54.97193848 66.6055957 55.7680957 67.21337891 56.58837891 C77.44380801 70.39764082 87.56578014 84.28038713 97.60449219 98.22949219 C104.26924934 107.48722477 110.97874349 116.70866526 117.76049805 125.88110352 C121.79878856 131.34956341 125.78485921 136.85333927 129.75 142.375 C133.45340397 147.53184878 137.21338871 152.62431624 141.125 157.625 C145.7167263 163.5349961 149.94697679 169.64998254 154.15625 175.8359375 C161.13022444 186.08016653 168.36586687 196.14427581 175.625 206.1875 C176.16253906 206.93386719 176.70007813 207.68023437 177.25390625 208.44921875 C179.83205521 212.0247538 182.42873604 215.582327 185.078125 219.10546875 C185.788479 220.0632019 185.788479 220.0632019 186.51318359 221.0402832 C187.39637767 222.23017268 188.28941167 223.41284528 189.19384766 224.58666992 C192.01715883 228.41981711 192.01715883 228.41981711 191.9375 231.11328125 C190.82853858 233.34506611 189.58558633 235.28934333 188.125 237.3125 C187.49722656 238.18777344 186.86945313 239.06304687 186.22265625 239.96484375 C184.60914864 242.16817488 182.99225756 244.36872448 181.37109375 246.56640625 C180.43474981 247.83582981 179.49855519 249.10536351 178.5625 250.375 C178.08417725 251.02355957 177.60585449 251.67211914 177.11303711 252.34033203 C173.68862188 257.00537597 170.45131255 261.7673286 167.26953125 266.6015625 C159.26249987 278.67665267 150.75093148 290.41285399 142.12402344 302.04931641 C134.16725379 312.79655879 126.47738325 323.71051689 119.10546875 334.8671875 C111.38790477 346.35046451 103.20118539 357.52026367 95.08984375 368.7265625 C90.6972978 374.79690147 86.33915277 380.89140436 82 387 C81.53239258 387.65822754 81.06478516 388.31645508 80.58300781 388.99462891 C75.16710437 396.62580466 69.78775428 404.27938225 64.5 412 C60.60004279 417.69339922 56.66295135 423.3590229 52.6875 429 C52.20796875 429.68191406 51.7284375 430.36382813 51.234375 431.06640625 C49.83224819 433.05113423 48.41849618 435.02694373 47 437 C46.19876709 438.12728516 46.19876709 438.12728516 45.38134766 439.27734375 C44.84944824 440.01082031 44.31754883 440.74429687 43.76953125 441.5 C43.28718018 442.1703125 42.8048291 442.840625 42.30786133 443.53125 C41.87626709 444.0159375 41.44467285 444.500625 41 445 C40.34 445 39.68 445 39 445 C39 445.66 39 446.32 39 447 C53.6735856 447.2438446 68.34572786 447.39503216 83.02132893 447.43784332 C89.83682267 447.45985362 96.64962728 447.51144462 103.46411133 447.63427734 C110.04584595 447.75282967 116.62459194 447.78682908 123.20760155 447.7702179 C125.71352064 447.77753022 128.21952474 447.81276199 130.72463417 447.87687683 C143.51387006 448.70087209 143.51387006 448.70087209 155.10900688 444.43717766 C158.61503901 440.71672066 160.95082268 436.56079055 163.07014942 431.93793392 C164.4030422 429.16000573 166.14090069 426.72064036 167.93359375 424.22265625 C168.51343018 423.36873291 169.0932666 422.51480957 169.69067383 421.63500977 C174.83228841 414.06307506 180.0101852 406.52290446 185.3125 399.0625 C190.70046098 391.47687656 195.87674064 383.76602663 201 376 C208.92268505 363.99763928 217.03149823 352.14548716 225.31689453 340.39038086 C228.88481011 335.32315408 232.4444382 330.25000903 235.96875 325.15234375 C239.79583127 319.61674405 243.81325427 314.26842775 248 309 C252.87139555 313.37878252 256.12353453 318.49776426 259.625 324 C260.96300666 326.07716764 262.30157515 328.15397345 263.640625 330.23046875 C264.34767578 331.33052246 265.05472656 332.43057617 265.78320312 333.56396484 C269.21375301 338.89121664 272.69577463 344.18482386 276.17324829 349.48150635 C278.1890584 352.5528026 280.20168661 355.6261832 282.21484375 358.69921875 C284.95613307 362.8829 287.69907134 367.06549197 290.44393921 371.24682617 C298.15686663 382.99834061 305.8225942 394.77356406 313.2890625 406.68359375 C318.77300448 415.42886588 324.35142531 424.11027636 330 432.75 C331.16670522 434.53643316 332.33336938 436.32289313 333.5 438.109375 C334.15475815 439.0605571 334.8095163 440.0117392 335.4841156 440.991745 C337.52605563 444.08579301 339.1378715 447.28316106 340.75404358 450.61750793 C346.34795457 461.78035625 346.34795457 461.78035625 355.85847092 469.30948257 C363.96424311 471.30245673 372.22170647 470.78998579 380.49609375 470.46484375 C383.14319152 470.44434519 385.78878974 470.43293555 388.43580627 470.43348694 C394.65453518 470.41513154 400.86484699 470.28040726 407.08081442 470.10182053 C414.16631348 469.9040673 421.25119069 469.83907873 428.33901107 469.78420055 C442.89625844 469.66856769 457.4475337 469.38956389 472 469 C472 468.34 472 467.68 472 467 C471.34 467 470.68 467 470 467 C468.79833984 465.62988281 468.79833984 465.62988281 467.4609375 463.703125 C466.96730713 462.99808838 466.47367676 462.29305176 465.96508789 461.56665039 C465.44035889 460.80215576 464.91562988 460.03766113 464.375 459.25 C463.83157959 458.46939209 463.28815918 457.68878418 462.72827148 456.88452148 C459.78676733 452.64479452 456.90103229 448.37196338 454.0625 444.0625 C450.83580935 439.17277166 447.44509165 434.42398405 444 429.6875 C430.59250335 411.23446775 417.79937762 392.37460508 405.24267578 373.33544922 C399.23510354 364.22879833 393.20281865 355.17365554 386.75 346.375 C376.11686232 331.85584953 366.07779302 316.7886909 356.6875 301.4375 C352.24089153 294.17113767 347.26971192 287.33047597 342.23828125 280.4609375 C339.15413621 276.2405285 336.18831077 271.94772719 333.25 267.625 C328.68881829 260.92975499 323.89840245 254.45373461 319 248 C317.51340012 246.0264105 316.03396956 244.04739598 314.5625 242.0625 C313.92441406 241.20785156 313.28632813 240.35320312 312.62890625 239.47265625 C310.97795767 236.96654006 309.75949689 234.90831735 309 232 C309.73046875 229.88671875 309.73046875 229.88671875 311.1875 227.6875 C311.75597656 226.81609375 312.32445312 225.9446875 312.91015625 225.046875 C313.94462891 223.53867187 313.94462891 223.53867187 315 222 C315.8114779 220.79706382 316.62265889 219.59392732 317.43359375 218.390625 C321.24382134 212.77514419 325.13086363 207.2146458 329.0625 201.68359375 C330.08335292 200.24740975 331.1041863 198.81121187 332.125 197.375 C332.62966797 196.66561279 333.13433594 195.95622559 333.65429688 195.2253418 C336.77678054 190.81011335 339.74918458 186.32895576 342.625 181.75 C348.37302048 172.61956092 355.06896559 164.25825376 362 156 C367.16922137 159.02588568 371.84037142 162.83153407 375 168 C374.9294421 172.1276374 371.83631762 175.47094704 369.5625 178.75 C365.90803083 184.11239299 362.39390161 189.53174728 359 195.0625 C355.81922993 200.22080881 352.49789645 205.22108378 348.9375 210.125 C345.47923584 214.90415271 342.07778741 219.71129922 338.8125 224.625 C338.41345459 225.20523926 338.01440918 225.78547852 337.60327148 226.38330078 C335.50288115 229.42511225 335.50288115 229.42511225 335.27539062 232.97314453 C336.4986112 236.3947002 338.64901719 239.27059372 340.6875 242.25 C341.13722168 242.91588135 341.58694336 243.5817627 342.05029297 244.26782227 C345.2325722 248.95211444 348.52900303 253.52424075 352 258 C359.2005615 255.79511714 365.92048612 252.87644175 372.75759888 249.73171997 C382.43611856 245.29144145 392.15762587 240.97701152 402.0625 237.0625 C402.8786377 236.73427246 403.69477539 236.40604492 404.53564453 236.06787109 C420.31024211 229.94477569 436.70470805 225.88963623 453.25 222.5 C454.16597961 222.3102359 455.08195923 222.1204718 456.0256958 221.92495728 C496.04753866 213.66917815 536.6867444 208.75368543 577.45996094 206.22216797 C581.24762402 205.98445946 585.03388906 205.72932359 588.8203125 205.47265625 C606.53479634 204.28449456 624.24712966 203.36481344 642 203 C643.14184753 202.97489349 643.14184753 202.97489349 644.3067627 202.94927979 C649.31365068 202.84144106 654.31995847 202.76240462 659.32778931 202.71490479 C660.96652852 202.69683053 662.60521032 202.67219644 664.2437439 202.64056396 C674.4678413 202.45353057 681.9782019 202.40558897 689.9375 209.6875 C692.62409639 214.00233663 693.72193229 216.91670355 693 222 C689.48443177 231.69444574 683.50825765 239.89005275 677.40185547 248.09033203 C675.36184118 250.86932747 673.39732128 253.69938209 671.42602539 256.52734375 C666.51862276 263.55976836 661.48187111 270.40025714 656 277 C655.19820312 277.99773437 654.39640625 278.99546875 653.5703125 280.0234375 C649.38473351 285.20139086 645.19126979 290.0620131 640.0390625 294.30078125 C637.7213307 296.23222441 635.56629096 298.30148201 633.375 300.375 C616.36671475 315.66422426 595.84070702 324.30744596 572.84649658 323.21348572 C567.63091926 322.82232021 562.48341994 321.98018671 557.31640625 321.1875 C542.59890925 319.01174962 527.84730856 317.33506312 513.05329132 315.77892685 C510.96040574 315.55832657 508.86772106 315.33590387 506.77508545 315.11294556 C456.47674285 309.7106635 456.47674285 309.7106635 406.06176758 305.60083008 C398.31767815 305.06750143 390.66891999 304.20750164 383 303 C384.91392708 305.93800234 386.84489707 308.86214114 388.81640625 311.76171875 C390.09298012 313.65488465 391.34367476 315.56693152 392.52734375 317.51953125 C396.84893883 324.06497101 402.73457184 326.72080366 409.625 329.9140625 C414.0314851 331.96610213 418.20182673 334.32501094 422.375 336.8125 C423.42216187 337.43342529 423.42216187 337.43342529 424.49047852 338.06689453 C428.23802689 340.30455614 431.95360883 342.58885891 435.65234375 344.90625 C462.38068661 361.61774576 493.18064833 368.71184203 524.40625 361.984375 C532.49339232 359.76920124 539.86881425 356.37595489 547 352 C541.29563235 347.32053056 535.56842939 343.36961981 529 340 C529 339.67 529 339.34 529 339 C539.24353164 339.02818028 548.89428097 340.35878956 558.875 342.6875 C559.9074585 342.91904785 560.93991699 343.1505957 562.00366211 343.38916016 C569.18137108 345.14783383 575.98038955 347.60926506 582 352 C583.30419922 354.19018555 583.30419922 354.19018555 584 356 C563.52414876 371.42653418 535.89584311 385.0058097 509.87890625 385.16796875 C509.22155991 385.17224884 508.56421356 385.17652893 507.88694763 385.18093872 C505.7787278 385.19086034 503.67073857 385.19100574 501.5625 385.1875 C500.84280029 385.18656342 500.12310059 385.18562683 499.3815918 385.18466187 C471.80316072 385.10658503 448.43768899 378.60416606 425 364 C432.83156073 376.65748573 440.96895478 388.91572147 449.8984375 400.82421875 C453.04499384 405.02745445 455.96336333 409.35166645 458.8359375 413.74609375 C463.46119599 420.70067917 468.32354517 427.49501886 473.12695312 434.32714844 C475.00459609 437.00655866 476.87106056 439.69342215 478.734375 442.3828125 C483.97680579 449.9380804 489.18901427 457.40949563 495.05859375 464.49609375 C498.57769863 469.03481856 501.66035535 473.87478526 504.80078125 478.6796875 C506.07278153 480.60011422 507.38451121 482.49760274 508.79296875 484.3203125 C510 486 510 486 510 488 C507.53856894 489.23071553 505.77678697 489.20363994 503.02316284 489.3105011 C501.97720003 489.35160853 500.93123722 489.39271597 499.85357857 489.43506908 C498.70548651 489.47365693 497.55739445 489.51224478 496.37451172 489.55200195 C495.17107557 489.59404157 493.96763943 489.63608118 492.72773552 489.67939472 C478.87600769 490.12351588 465.02389651 490.16467768 451.16659403 490.16725707 C448.97387229 490.16797994 446.78115638 490.17013619 444.58843613 490.17275429 C436.91214361 490.18190077 429.23586811 490.18610049 421.55957031 490.18530273 C414.43645651 490.18469608 407.31341698 490.19538882 400.19032204 490.2110464 C394.02414191 490.22411212 387.85798624 490.22948745 381.69179237 490.22884732 C378.02944709 490.22859323 374.36716908 490.23139947 370.7048378 490.24202538 C366.64708501 490.25348996 362.58950274 490.24896583 358.53173828 490.24291992 C356.72880562 490.25134918 356.72880562 490.25134918 354.88945007 490.25994873 C353.23380287 490.253657 353.23380287 490.253657 351.54470825 490.24723816 C350.5888489 490.24778293 349.63298954 490.24832769 348.64816475 490.24888897 C345.09439191 489.91488601 342.05447787 489.17921717 339.62548828 486.46289062 C339.27728027 485.86669922 338.92907227 485.27050781 338.5703125 484.65625 C338.16683594 483.9859375 337.76335937 483.315625 337.34765625 482.625 C336.94417969 481.92375 336.54070312 481.2225 336.125 480.5 C332.9719057 475.15925395 329.65681734 470.03432894 326.07080078 464.97314453 C321.53982298 458.46780998 317.22584684 451.8140364 312.875 445.1875 C312.1103241 444.02423187 312.1103241 444.02423187 311.3302002 442.83746338 C304.31104761 432.15287571 297.43495999 421.40307297 290.765625 410.49609375 C286.783855 403.9902157 282.61663609 397.60615136 278.44628906 391.22021484 C276.87184017 388.80326038 275.3064537 386.38058754 273.7421875 383.95703125 C267.6466017 374.52378696 261.43705727 365.20318229 255 356 C253.80573385 354.2754995 252.61748503 352.54680359 251.4375 350.8125 C250.96183594 350.11769531 250.48617187 349.42289062 249.99609375 348.70703125 C249 347 249 347 249 345 C245.16011503 348.54662407 242.22185194 352.58585017 239.1875 356.8125 C238.6198291 357.60092285 238.0521582 358.3893457 237.46728516 359.20166016 C232.43848052 366.25624109 227.70823407 373.48878608 223.00830078 380.76489258 C217.95463648 388.57597447 212.79096836 396.30537445 207.5625 404 C207.15990967 404.59251556 206.75731934 405.18503113 206.3425293 405.79550171 C200.27260042 414.72069718 194.14239425 423.60294166 187.94458008 432.43994141 C184.35463272 437.56895481 180.82961288 442.73374645 177.3671875 447.94921875 C176.58889388 449.11576769 175.81041236 450.2821913 175.03173828 451.44848633 C173.53571019 453.68935606 172.05532575 455.93828489 170.58154297 458.1940918 C169.91010254 459.19996338 169.23866211 460.20583496 168.546875 461.2421875 C167.66273926 462.58579346 167.66273926 462.58579346 166.76074219 463.95654297 C164.6951665 466.35377931 164.05231361 466.49641451 161 467 C158.80373945 467.08988431 156.60489774 467.12196643 154.40679932 467.12025452 C153.41549487 467.12153615 153.41549487 467.12153615 152.40416408 467.12284368 C150.19161559 467.12448967 147.97914306 467.11899154 145.76660156 467.11352539 C144.17982485 467.1132433 142.593048 467.11340168 141.00627136 467.1139679 C136.69878294 467.11425503 132.39132232 467.10837185 128.08384037 467.10139394 C123.58216047 467.09514643 119.08047995 467.09455549 114.57879639 467.09336853 C106.05430012 467.09025934 97.52981666 467.0820515 89.00532603 467.07201904 C79.30046199 467.06084512 69.59559734 467.05534422 59.89072847 467.05032361 C39.92714516 467.03986856 19.96357339 467.02227707 0 467 C0 466.34 0 465.68 0 465 C0.680625 464.360625 1.36125 463.72125 2.0625 463.0625 C4.56842537 460.65429874 6.30237866 458.08072087 8.125 455.125 C10.95864852 450.54709699 13.98166038 446.19401772 17.1875 441.875 C21.17032811 436.50316488 25.0892841 431.09421096 28.9375 425.625 C29.43668945 424.91577393 29.93587891 424.20654785 30.45019531 423.47583008 C31.96772179 421.31786839 33.48395047 419.15899948 35 417 C41.65400826 407.5320099 48.35422471 398.10170472 55.14428711 388.73071289 C58.79987757 383.67940109 62.41351425 378.60056944 66 373.5 C70.12391276 367.63512143 74.29325447 361.80574605 78.5 356 C84.23929426 348.07658305 89.89723634 340.09867066 95.52490234 332.09570312 C96.98934516 330.01513757 98.45694191 327.93683858 99.92578125 325.859375 C105.90134038 317.40747591 111.85068014 308.93768241 117.77978516 300.453125 C120.57598312 296.45392062 123.37831621 292.45952872 126.203125 288.48046875 C130.89138733 281.8764444 135.53574271 275.25804201 140 268.5 C148.50846196 255.63275103 157.46676202 243.12745982 167 231 C161.08959748 221.36437899 154.57974029 212.18504759 148 203 C147.47599609 202.2682959 146.95199219 201.5365918 146.41210938 200.78271484 C138.62034872 189.91892525 130.71114468 179.14311133 122.76611328 168.39111328 C119.25687377 163.64000853 115.75538724 158.88318709 112.25244141 154.12744141 C109.32579251 150.15468511 106.39729226 146.18332154 103.46484375 142.21484375 C97.22528928 133.76659743 91.0293578 125.28993416 84.89208984 116.76708984 C78.06703955 107.30035089 71.11941561 97.92392372 64.18115234 88.54003906 C57.93485445 80.09024641 51.69985919 71.63686966 45.6184082 63.06738281 C42.14920049 58.18526919 38.59992166 53.36433015 35.04101562 48.54736328 C32.03827893 44.46598393 29.15369394 40.31984856 26.3125 36.125 C23.80771376 32.46721693 21.28961454 29.09864131 18.25 25.875 C11.34783083 18.44081779 4.54762521 9.09525043 0 0 Z M644.30859375 223.55078125 C642.89194524 223.6097346 641.47529376 223.66861652 640.05863953 223.72743225 C635.51803895 223.917438 630.97773578 224.11398605 626.4375 224.3125 C625.27644871 224.36320019 625.27644871 224.36320019 624.09194183 224.41492462 C586.19581289 226.07499339 548.63301191 228.351608 511.0536499 233.70831299 C509.15826224 233.97752147 507.26202682 234.24074303 505.36572266 234.50341797 C486.43417325 237.13860933 467.69792554 240.79756769 448.97241211 244.6015625 C447.17343185 244.96496587 445.37292274 245.3207799 443.57226562 245.67578125 C429.96099098 248.37194428 417.6937751 252.43542511 405 258 C403.5605663 258.62173023 402.12075867 259.24259514 400.68066406 259.86279297 C396.60741981 261.61840731 392.5403454 263.3876946 388.47711182 265.16635132 C386.83369847 265.88528645 385.18929581 266.6019646 383.54388428 267.3163147 C381.21233664 268.33136865 378.8868241 269.35915572 376.5625 270.390625 C375.85916534 270.69459702 375.15583069 270.99856903 374.43118286 271.31175232 C370.58166836 273.03813272 367.76116743 274.79217314 365 278 C368.46193723 281.18382373 371.28354095 281.52656598 375.90356445 281.91967773 C376.59332965 281.98205061 377.28309484 282.04442348 377.99376202 282.10868645 C380.2827093 282.31264315 382.57277399 282.49804936 384.86328125 282.68359375 C386.47764474 282.82408289 388.09190138 282.96580463 389.70605469 283.10868835 C393.12999916 283.40948545 396.55448578 283.70244093 399.97964478 283.98907471 C405.32706161 284.43683522 410.67280267 284.90261696 416.01831055 285.37255859 C417.78980873 285.52815376 419.56130835 285.68373245 421.33280945 285.83929443 C422.2026264 285.91569908 423.07244335 285.99210373 423.96861839 286.07082367 C426.58657846 286.30015303 429.20467902 286.52780754 431.8228302 286.75494385 C443.66287657 287.7832952 455.49351274 288.87513399 467.3125 290.125 C468.03118256 290.20081299 468.74986511 290.27662598 469.49032593 290.35473633 C472.36634883 290.65876644 475.24224914 290.96388452 478.11784363 291.27194214 C484.3012408 291.93271046 490.48822716 292.55531131 496.67578125 293.17578125 C500.82572586 293.59434847 504.97544272 294.01511061 509.125 294.4375 C510.65000122 294.59262558 510.65000122 294.59262558 512.20581055 294.75088501 C525.16511446 296.07838745 538.06631714 297.63023516 550.96160889 299.47689819 C577.0259254 303.7520727 577.0259254 303.7520727 602 297 C602.86753906 296.55398438 603.73507812 296.10796875 604.62890625 295.6484375 C623.10033606 285.29981172 638.71334051 268.00990069 651 251 C651.50402344 250.30310059 652.00804687 249.60620117 652.52734375 248.88818359 C661.96070812 236.37443526 661.96070812 236.37443526 670 223 C661.42271377 222.91211272 652.8770313 223.18561607 644.30859375 223.55078125 Z " fill="#00D6F8" transform="translate(9,99)"/>
  <path d="M0 0 C3.48693099 0.08312093 6.96843317 0.04738747 10.45583534 0.01023865 C13.8373463 -0.0135545 17.21565551 0.02772259 20.59659958 0.08914185 C22.20142088 0.11270174 23.80659889 0.11910025 25.41154861 0.10714722 C37.46439439 0.08130566 37.46439439 0.08130566 41.6102829 3.33105469 C45.0185021 6.85685776 47.45144994 10.89201536 49.99176025 15.06237793 C51.52547756 17.14784881 53.1290432 19.16097939 54.74176025 21.18737793 C57.99976323 25.55026887 60.69600482 29.92945056 63.20269775 34.75378418 C65.63708373 39.25580365 68.2845578 43.61902039 70.92926025 47.99987793 C71.44996094 48.86878662 71.97066162 49.73769531 72.50714111 50.63293457 C74.76422516 54.39568873 77.03080959 58.14649298 79.394104 61.84362793 C80.04508057 62.88519043 80.69605713 63.92675293 81.36676025 64.99987793 C81.93136963 65.87515137 82.495979 66.7504248 83.07769775 67.65222168 C83.99176025 70.06237793 83.99176025 70.06237793 83.21685791 72.42834473 C82.04558918 74.94664252 80.76808429 77.25840375 79.30426025 79.61706543 C78.77526123 80.47179443 78.24626221 81.32652344 77.70123291 82.20715332 C77.13710693 83.10812744 76.57298096 84.00910156 75.99176025 84.93737793 C75.41087646 85.87122314 74.82999268 86.80506836 74.23150635 87.76721191 C70.39373022 93.90733768 66.44013081 99.95561154 62.38043213 105.95056152 C59.93603066 109.58015765 57.66147191 113.26285961 55.49176025 117.06237793 C54.70169838 118.39954865 54.70169838 118.39954865 53.89567566 119.76373291 C52.54202573 122.10901074 51.29273897 124.43399053 50.06794739 126.84222412 C44.13871959 137.77576388 44.13871959 137.77576388 38.23928833 139.57885742 C33.77453317 140.45392616 29.30545916 140.52424484 24.769104 140.54675293 C23.09770004 140.59254211 21.42635741 140.64062108 19.75508118 140.69085693 C16.25960152 140.7758251 12.76967383 140.80002246 9.27325439 140.7869873 C5.71213289 140.78129211 2.17853225 140.87786194 -1.37713623 141.07409668 C-29.05287996 142.58169065 -29.05287996 142.58169065 -36.69886398 136.77942276 C-43.41367103 130.18603772 -47.01355803 121.32839082 -50.44132996 112.73118591 C-52.86984478 107.04499094 -56.12608976 101.94867085 -59.44573975 96.74987793 C-60.57297023 94.90437473 -61.69718504 93.05702214 -62.8168335 91.20690918 C-64.8780396 87.85205385 -66.99203706 84.54284483 -69.168396 81.26159668 C-69.65058594 80.52530029 -70.13277588 79.78900391 -70.62957764 79.03039551 C-71.51760091 77.68224188 -72.42071359 76.34384747 -73.34197998 75.01818848 C-76.13297789 70.76771542 -76.13297789 70.76771542 -75.57855225 67.63269043 C-73.4013174 64.06895778 -71.19247673 60.54242967 -68.88323975 57.06237793 C-67.88349831 55.53571702 -66.88480853 54.00836694 -65.887146 52.48034668 C-65.39617432 51.72930664 -64.90520264 50.9782666 -64.39935303 50.20446777 C-59.778531 43.08914793 -55.42033255 35.83000683 -51.25823975 28.43737793 C-50.59848145 27.3536792 -49.93872314 26.26998047 -49.25897217 25.15344238 C-47.56233451 22.2583068 -46.39103505 19.42261478 -45.29095459 16.25622559 C-37.27553589 -3.67803041 -18.28194168 -0.59623861 0 0 Z M-24.00823975 22.06237793 C-24.52918213 22.9888916 -25.05012451 23.91540527 -25.58685303 24.86999512 C-29.15044186 31.17737754 -32.73326473 37.36743101 -36.88323975 43.31237793 C-40.72897014 48.97728213 -44.33404889 54.75788691 -47.75823975 60.68737793 C-48.21311768 61.44566895 -48.66799561 62.20395996 -49.13665771 62.98522949 C-51.52772748 67.03580016 -51.52772748 67.03580016 -51.60198975 71.56628418 C-51.07605225 72.38999512 -50.55011475 73.21370605 -50.00823975 74.06237793 C-49.47311768 74.94071289 -49.47311768 74.94071289 -48.92718506 75.83679199 C-47.08012664 78.83808113 -45.15298305 81.783902 -43.19560242 84.71432495 C-40.10649576 89.4320881 -37.48242336 94.06143365 -35.27313232 99.25500488 C-30.32318628 110.70645055 -30.32318628 110.70645055 -21.07080078 118.48062134 C-14.00892177 120.39242174 -7.00828372 120.39899249 0.25958252 120.0814209 C4.06913625 119.93681325 7.81746734 120.0391606 11.62652588 120.16784668 C23.88100072 120.35742869 23.88100072 120.35742869 34.37890625 114.88934326 C38.48965979 109.63398636 41.21674516 103.88385352 43.77865601 97.75578308 C45.57994758 93.75644996 47.96867177 90.25916343 50.49176025 86.68737793 C51.29003119 85.50472522 52.08697269 84.32117373 52.88238525 83.13659668 C54.16304573 81.27015262 55.46070851 79.41502545 56.78863525 77.58190918 C58.41771872 75.34980198 58.41771872 75.34980198 59.99176025 72.06237793 C58.89951774 67.44283458 56.75531652 63.63529459 54.36676025 59.56237793 C53.64637938 58.32819478 52.92633706 57.09381397 52.206604 55.85925293 C51.83906006 55.23212402 51.47151611 54.60499512 51.09283447 53.9588623 C50.02092332 52.11260824 48.97286118 50.25505868 47.9331665 48.39050293 C44.45083582 42.15914167 40.8298909 36.13048038 36.63238525 30.34362793 C34.99176025 28.06237793 34.99176025 28.06237793 33.66558838 24.9564209 C30.54833802 21.58243571 29.8903252 21.60554357 25.48883057 21.38122559 C23.18229729 21.38217512 20.87562808 21.41605239 18.56988525 21.47644043 C17.35476257 21.48493011 16.13963989 21.4934198 14.88769531 21.50216675 C11.00481693 21.53576624 7.12401146 21.61106714 3.24176025 21.68737793 C0.61027981 21.71746863 -2.02123316 21.74484598 -4.652771 21.76940918 C-11.10530175 21.83557967 -17.55662268 21.93599738 -24.00823975 22.06237793 Z " fill="#FBAB1C" transform="translate(581.0082397460938,55.9376220703125)"/>
  <path d="M0 0 C0.87092285 0.00094666 1.7418457 0.00189331 2.63916016 0.00286865 C8.10390199 -0.01067001 13.54400957 -0.17334378 19.00189209 -0.43855286 C48.08375475 -1.78663185 48.08375475 -1.78663185 55.76220703 2.48095703 C60.0447635 6.75506456 61.78628912 12.09601936 63.69921875 17.72802734 C65.88906068 23.28849166 69.18995376 28.20953539 72.38015747 33.23760986 C74.24857752 36.20456181 76.0487995 39.212391 77.859375 42.21484375 C80.36786785 46.3516146 82.91835786 50.45838057 85.5234375 54.53515625 C86.30835571 55.77531494 86.30835571 55.77531494 87.10913086 57.04052734 C88.0597405 58.5371112 89.02202081 60.02637521 89.99829102 61.50634766 C91.67439543 64.15807537 92.93687426 66.21302082 93.02734375 69.39453125 C91.44122986 73.13984397 89.38097709 76.49085241 87.20703125 79.921875 C86.47818726 81.09351196 86.47818726 81.09351196 85.73461914 82.28881836 C84.69032336 83.96648242 83.64276794 85.642121 82.59228516 87.31591797 C79.84398201 91.69564144 77.11927928 96.0899718 74.39453125 100.484375 C73.84958008 101.36182373 73.30462891 102.23927246 72.74316406 103.14331055 C68.83307287 109.45660034 65.02033204 115.82090441 61.29077148 122.24243164 C60.57598929 123.47181945 59.84674429 124.69297761 59.09954834 125.90293884 C57.91002378 127.87633693 57.91002378 127.87633693 57.20539856 129.97839355 C56.0878345 132.5676539 55.09219851 134.05277416 52.95703125 135.921875 C47.72386879 137.38780392 42.46158081 137.51511138 37.0625 137.65234375 C35.89126807 137.69188895 35.89126807 137.69188895 34.69637489 137.73223305 C30.55409737 137.86963041 26.41399631 137.95869778 22.26977539 138.00854492 C18.86397154 138.05695599 15.47798131 138.18814096 12.07836914 138.39819336 C-14.5686754 140.01316085 -14.5686754 140.01316085 -21.66080856 134.71276093 C-28.03067979 128.51492587 -31.46099611 120.16034312 -34.70257568 112.04516602 C-36.45143935 107.97008513 -38.7330105 104.62390158 -41.48046875 101.171875 C-46.53096456 94.37573803 -50.7974019 87.23455896 -55.04296875 79.921875 C-55.74821271 78.71716374 -56.45393136 77.51273023 -57.16015625 76.30859375 C-58.79402061 73.51658858 -60.42174084 70.72122994 -62.04296875 67.921875 C-61.68170898 67.42598877 -61.32044922 66.93010254 -60.94824219 66.41918945 C-53.36812652 55.95523003 -46.38371709 45.38362505 -40.09936523 34.09033203 C-37.24607952 28.97492558 -34.27570811 24.14501638 -30.734375 19.46875 C-29.27675656 17.27390652 -28.1499822 15.17648862 -27.0078125 12.8125 C-21.59620415 1.75742659 -21.59620415 1.75742659 -17.7265625 -0.32421875 C-15.23046875 -0.578125 -15.23046875 -0.578125 -12.54589844 -0.34887695 C-8.35437419 -0.02490146 -4.20213409 0.00589084 0 0 Z M-17.23046875 29.796875 C-18.61181559 32.7136558 -19.70148466 35.60212882 -20.75537109 38.65136719 C-22.20452656 42.33223307 -24.09319738 45.59249617 -26.1875 48.9296875 C-26.73122505 49.80414017 -26.73122505 49.80414017 -27.28593445 50.69625854 C-28.01284687 51.86373409 -28.74074063 53.03059921 -29.46963501 54.19683838 C-31.17369755 56.93556742 -32.83330203 59.69264287 -34.44921875 62.484375 C-34.99900391 63.41378906 -35.54878906 64.34320313 -36.11523438 65.30078125 C-37.30497034 67.88284987 -37.30497034 67.88284987 -36.38452148 70.44262695 C-35.94180908 71.26077881 -35.49909668 72.07893066 -35.04296875 72.921875 C-34.38083374 74.15200317 -34.38083374 74.15200317 -33.70532227 75.40698242 C-33.19928467 76.27170166 -32.69324707 77.1364209 -32.171875 78.02734375 C-31.59630859 79.01283203 -31.02074219 79.99832031 -30.42773438 81.01367188 C-29.82638672 82.03525391 -29.22503906 83.05683594 -28.60546875 84.109375 C-28.03892578 85.08068359 -27.47238281 86.05199219 -26.88867188 87.05273438 C-25.66373063 89.14360554 -24.40843641 91.21689218 -23.12866211 93.2746582 C-21.49132081 95.98862062 -20.25150181 98.74242218 -19.03735352 101.66870117 C-15.07631426 110.53394095 -15.07631426 110.53394095 -7.40097046 115.93948364 C-0.7714314 117.33366574 5.82184587 117.26912339 12.56420898 116.99389648 C16.154015 116.85901867 19.71519192 116.89098152 23.30664062 116.94335938 C33.96796983 117.22548196 33.96796983 117.22548196 43.74291992 113.72598267 C46.9611356 110.35018648 48.38378089 106.22737754 49.95703125 101.921875 C51.05339924 99.98751062 52.19010392 98.07529886 53.37109375 96.19140625 C54.44264877 94.37312751 55.51297711 92.55412525 56.58203125 90.734375 C57.65720979 88.9073506 58.73272878 87.08052651 59.80859375 85.25390625 C60.32325195 84.37299316 60.83791016 83.49208008 61.36816406 82.58447266 C62.45760656 80.75880273 63.57863127 78.95171903 64.72558594 77.16162109 C65.28407227 76.28199707 65.84255859 75.40237305 66.41796875 74.49609375 C66.9289209 73.71194092 67.43987305 72.92778809 67.96630859 72.11987305 C69.14003731 70.00917772 69.14003731 70.00917772 68.7409668 67.87792969 C67.92563496 65.84353584 67.02102232 63.96531268 65.953125 62.05078125 C65.54626465 61.31827148 65.1394043 60.58576172 64.72021484 59.83105469 C64.28273926 59.05665039 63.84526367 58.28224609 63.39453125 57.484375 C62.94416504 56.68032227 62.49379883 55.87626953 62.02978516 55.04785156 C58.83376664 49.37884451 55.49574669 43.82345683 52.03686523 38.31079102 C49.85539922 34.75627409 47.77239782 31.15820546 45.71484375 27.53125 C45.35076416 26.89171387 44.98668457 26.25217773 44.61157227 25.59326172 C43.72566252 24.0367372 42.84119399 22.47939254 41.95703125 20.921875 C29.30649244 19.93092005 16.65140875 19.3436296 3.9609375 19.62890625 C2.36830582 19.61871712 2.36830582 19.61871712 0.74349976 19.60832214 C-7.62959001 19.91742936 -12.2484975 23.09753216 -17.23046875 29.796875 Z " fill="#FBAB1C" transform="translate(453.04296875,157.078125)"/>
  <path d="M0 0 C44.55 0 89.1 0 135 0 C134.34 1.98 133.68 3.96 133 6 C132.67 5.34 132.34 4.68 132 4 C132.33 3.34 132.66 2.68 133 2 C132.01739685 2.00138269 132.01739685 2.00138269 131.01494312 2.00279331 C115.07385683 2.02488004 99.13277585 2.04142694 83.19167805 2.05181217 C75.48267886 2.05696791 67.77368989 2.06399687 60.06469727 2.07543945 C53.34535169 2.08540833 46.6260135 2.09185869 39.90666074 2.09408849 C36.34900731 2.09539185 32.79137505 2.09845403 29.23372841 2.10573006 C25.26169056 2.11378766 21.2896734 2.11398971 17.31762695 2.11352539 C16.1387088 2.11712067 14.95979065 2.12071594 13.74514771 2.12442017 C12.66126266 2.1230455 11.57737762 2.12167084 10.46064758 2.12025452 C9.52134053 2.12117631 8.58203348 2.1220981 7.61426258 2.12304783 C4.98334961 1.9992163 2.5645213 1.58506526 0 1 C0 0.67 0 0.34 0 0 Z " fill="#00EAFB" transform="translate(349,100)"/>
</svg>